<svg width="27" height="27" viewBox="0 0 27 27" fill="none" xmlns="http://www.w3.org/2000/svg">
<path d="M7.52344 0C6.67969 0 5.96484 0.292969 5.37891 0.878906C4.79297 1.46484 4.5 2.17969 4.5 3.02344V9C4.5 9.84375 4.20703 10.5586 3.62109 11.1445C3.03516 11.7305 2.32031 12.0234 1.47656 12.0234H0V14.9766H1.47656C2.32031 14.9766 3.03516 15.2695 3.62109 15.8555C4.20703 16.4414 4.5 17.1562 4.5 18V23.9766C4.5 24.8203 4.79297 25.5352 5.37891 26.1211C5.96484 26.707 6.67969 27 7.52344 27H10.4766V23.9766H7.52344V16.5234C7.52344 15.6797 7.23047 14.9648 6.64453 14.3789C6.05859 13.793 5.34375 13.5 4.5 13.5C5.34375 13.5 6.05859 13.207 6.64453 12.6211C7.23047 12.0352 7.52344 11.3203 7.52344 10.4766V3.02344H10.4766V0H7.52344ZM19.4766 0C20.3203 0 21.0352 0.292969 21.6211 0.878906C22.207 1.46484 22.5 2.17969 22.5 3.02344V9C22.5 9.84375 22.793 10.5586 23.3789 11.1445C23.9648 11.7305 24.6797 12.0234 25.5234 12.0234H27V14.9766H25.5234C24.6797 14.9766 23.9648 15.2695 23.3789 15.8555C22.793 16.4414 22.5 17.1562 22.5 18V23.9766C22.5 24.8203 22.207 25.5352 21.6211 26.1211C21.0352 26.707 20.3203 27 19.4766 27H16.5234V23.9766H19.4766V16.5234C19.4766 15.6797 19.7695 14.9648 20.3555 14.3789C20.9414 13.793 21.6562 13.5 22.5 13.5C21.6562 13.5 20.9414 13.207 20.3555 12.6211C19.7695 12.0352 19.4766 11.3203 19.4766 10.4766V3.02344H16.5234V0H19.4766Z" fill="#24283B"/>
</svg>
