<svg width="32" height="36" viewBox="0 0 32 36" fill="none" xmlns="http://www.w3.org/2000/svg">
<path d="M6.82031 4.46484C6.49219 4.11328 6.09375 3.9375 5.625 3.9375C5.15625 3.9375 4.75781 4.11328 4.42969 4.46484C4.10156 4.81641 3.9375 5.21484 3.9375 5.66016C3.9375 6.10547 4.10156 6.49219 4.42969 6.82031C4.75781 7.14844 5.15625 7.3125 5.625 7.3125C6.09375 7.3125 6.49219 7.14844 6.82031 6.82031C7.14844 6.49219 7.3125 6.10547 7.3125 5.66016C7.3125 5.21484 7.14844 4.81641 6.82031 4.46484ZM7.91016 10.7578C8.07422 12.4922 8.78906 13.9453 10.0547 15.1172C11.3438 16.2891 12.8672 16.875 14.625 16.875H20.707C21.1523 15.8906 21.832 15.082 22.7461 14.4492C23.6836 13.8164 24.7266 13.5 25.875 13.5C27.4219 13.5 28.7461 14.0508 29.8477 15.1523C30.9492 16.2539 31.5 17.5781 31.5 19.125C31.5 20.6719 30.9492 21.9961 29.8477 23.0977C28.7461 24.1992 27.4219 24.75 25.875 24.75C24.7266 24.75 23.6836 24.4453 22.7461 23.8359C21.832 23.2266 21.1523 22.4062 20.707 21.375H14.625C12.1172 21.375 9.86719 20.625 7.875 19.125V25.2422C8.88281 25.6641 9.69141 26.3438 10.3008 27.2812C10.9336 28.2188 11.25 29.25 11.25 30.375C11.25 31.9219 10.6992 33.2461 9.59766 34.3477C8.49609 35.4492 7.17188 36 5.625 36C4.07812 36 2.75391 35.4492 1.65234 34.3477C0.550781 33.2461 0 31.9219 0 30.375C0 29.25 0.304688 28.2188 0.914062 27.2812C1.54688 26.3438 2.36719 25.6641 3.375 25.2422V10.7578C2.36719 10.3359 1.54688 9.66797 0.914062 8.75391C0.304688 7.83984 0 6.79688 0 5.625C0 4.07812 0.550781 2.75391 1.65234 1.65234C2.75391 0.550781 4.07812 0 5.625 0C7.17188 0 8.49609 0.550781 9.59766 1.65234C10.6992 2.75391 11.25 4.07812 11.25 5.625C11.25 6.75 10.9453 7.78125 10.3359 8.71875C9.72656 9.65625 8.91797 10.3359 7.91016 10.7578ZM6.82031 29.2148C6.49219 28.8633 6.09375 28.6875 5.625 28.6875C5.15625 28.6875 4.75781 28.8633 4.42969 29.2148C4.10156 29.5664 3.9375 29.9648 3.9375 30.4102C3.9375 30.8555 4.10156 31.2422 4.42969 31.5703C4.75781 31.8984 5.15625 32.0625 5.625 32.0625C6.09375 32.0625 6.49219 31.8984 6.82031 31.5703C7.14844 31.2422 7.3125 30.8555 7.3125 30.4102C7.3125 29.9648 7.14844 29.5664 6.82031 29.2148ZM24.6797 17.9648C24.3516 18.3164 24.1875 18.7148 24.1875 19.1602C24.1875 19.6055 24.3516 19.9922 24.6797 20.3203C25.0078 20.6484 25.4062 20.8125 25.875 20.8125C26.3438 20.8125 26.7422 20.6484 27.0703 20.3203C27.3984 19.9922 27.5625 19.6055 27.5625 19.1602C27.5625 18.7148 27.3984 18.3164 27.0703 17.9648C26.7422 17.6133 26.3438 17.4375 25.875 17.4375C25.4062 17.4375 25.0078 17.6133 24.6797 17.9648Z" fill="#24283B"/>
</svg>
