<svg width="32" height="37" viewBox="0 0 32 37" fill="none" xmlns="http://www.w3.org/2000/svg">
<path d="M32 6.01562V9.39062C32 10.9375 30.4531 12.2617 27.3594 13.3633C24.2891 14.4648 20.5859 15.0156 16.25 15.0156C11.9141 15.0156 8.19922 14.4648 5.10547 13.3633C2.03516 12.2617 0.5 10.9375 0.5 9.39062V6.01562C0.5 4.46875 2.03516 3.14453 5.10547 2.04297C8.19922 0.941406 11.9141 0.390625 16.25 0.390625C20.5859 0.390625 24.2891 0.941406 27.3594 2.04297C30.4531 3.14453 32 4.46875 32 6.01562ZM28.1328 15.5078C29.7031 14.9453 30.9922 14.2656 32 13.4688V20.6406C32 22.1875 30.4531 23.5117 27.3594 24.6133C24.2891 25.7148 20.5859 26.2656 16.25 26.2656C11.9141 26.2656 8.19922 25.7148 5.10547 24.6133C2.03516 23.5117 0.5 22.1875 0.5 20.6406V13.4688C1.4375 14.2188 2.72656 14.8984 4.36719 15.5078C7.71875 16.6797 11.6797 17.2656 16.25 17.2656C20.8203 17.2656 24.7812 16.6797 28.1328 15.5078ZM0.5 24.7188C1.4375 25.4688 2.72656 26.1484 4.36719 26.7578C7.71875 27.9297 11.6797 28.5156 16.25 28.5156C20.8203 28.5156 24.7812 27.9297 28.1328 26.7578C29.7031 26.1953 30.9922 25.5156 32 24.7188V30.7656C32 32.3125 30.4531 33.6367 27.3594 34.7383C24.2891 35.8398 20.5859 36.3906 16.25 36.3906C11.9141 36.3906 8.19922 35.8398 5.10547 34.7383C2.03516 33.6367 0.5 32.3125 0.5 30.7656V24.7188Z" fill="#24283B"/>
</svg>
