<svg width="27" height="28" viewBox="0 0 27 28" fill="none" xmlns="http://www.w3.org/2000/svg">
<path d="M9.09961 9.27539C10.4277 7.9668 12.0195 7.3125 13.875 7.3125C15.7305 7.3125 17.3125 7.9668 18.6211 9.27539C19.9492 10.584 20.6133 12.166 20.6133 14.0215C20.6133 15.877 19.9492 17.459 18.6211 18.7676C17.3125 20.0762 15.7305 20.7305 13.875 20.7305C12.0195 20.7305 10.4277 20.0762 9.09961 18.7676C7.79102 17.459 7.13672 15.877 7.13672 14.0215C7.13672 12.166 7.79102 10.584 9.09961 9.27539ZM13.875 18.3867C15.0859 18.3867 16.1211 17.957 16.9805 17.0977C17.8398 16.2383 18.2695 15.2031 18.2695 13.9922C18.2695 12.8203 17.8398 11.8047 16.9805 10.9453C16.1211 10.0859 15.0859 9.65625 13.875 9.65625C12.6641 9.65625 11.6289 10.0762 10.7695 10.916C9.92969 11.7559 9.50977 12.7812 9.50977 13.9922C9.50977 15.2031 9.93945 16.2383 10.7988 17.0977C11.6582 17.957 12.6836 18.3867 13.875 18.3867ZM22.459 7.01953C22.459 7.44922 22.3027 7.82031 21.9902 8.13281C21.6973 8.44531 21.3262 8.60156 20.877 8.60156C20.4473 8.60156 20.0762 8.44531 19.7637 8.13281C19.4707 7.82031 19.3242 7.43945 19.3242 6.99023C19.3242 6.54102 19.4707 6.16992 19.7637 5.87695C20.0566 5.58398 20.4277 5.4375 20.877 5.4375C21.3262 5.4375 21.6973 5.59375 21.9902 5.90625C22.3027 6.21875 22.459 6.58984 22.459 7.01953ZM26.9121 8.60156C26.9707 9.69531 27 11.502 27 14.0215C27 16.541 26.9707 18.3477 26.9121 19.4414C26.7754 21.8242 26.0723 23.6602 24.8027 24.9492C23.5137 26.2383 21.6777 26.9414 19.2949 27.0586C18.2207 27.0977 16.4141 27.1172 13.875 27.1172C11.3555 27.1172 9.54883 27.0977 8.45508 27.0586C6.0918 26.9023 4.25586 26.1992 2.94727 24.9492C1.63867 23.6602 0.935547 21.8242 0.837891 19.4414C0.779297 18.3477 0.75 16.5312 0.75 13.9922C0.75 11.4531 0.779297 9.65625 0.837891 8.60156C0.974609 6.17969 1.67773 4.34375 2.94727 3.09375C4.29492 1.76562 6.13086 1.0625 8.45508 0.984375C9.54883 0.90625 11.3555 0.867188 13.875 0.867188C16.4141 0.867188 18.2207 0.90625 19.2949 0.984375C21.6777 1.10156 23.5137 1.80469 24.8027 3.09375C26.1113 4.38281 26.8145 6.21875 26.9121 8.60156ZM24.1289 21.7852C24.2656 21.4336 24.373 21.0137 24.4512 20.5254C24.5293 20.0371 24.5781 19.4512 24.5977 18.7676C24.6367 18.084 24.6562 17.5371 24.6562 17.127C24.6758 16.7168 24.6758 16.1113 24.6562 15.3105C24.6562 14.5098 24.6562 14.0801 24.6562 14.0215C24.6562 13.9629 24.6562 13.5234 24.6562 12.7031C24.6758 11.8828 24.6758 11.2773 24.6562 10.8867C24.6562 10.4961 24.6367 9.94922 24.5977 9.24609C24.5781 8.54297 24.5293 7.95703 24.4512 7.48828C24.373 7.01953 24.2656 6.60938 24.1289 6.25781C23.6406 5.08594 22.8008 4.26562 21.6094 3.79688C21.2773 3.64062 20.8672 3.52344 20.3789 3.44531C19.9102 3.36719 19.3242 3.31836 18.6211 3.29883C17.9375 3.2793 17.3906 3.25977 16.9805 3.24023C16.5898 3.2207 15.9844 3.2207 15.1641 3.24023C14.3633 3.25977 13.9336 3.26953 13.875 3.26953C13.8164 3.26953 13.377 3.25977 12.5566 3.24023C11.7559 3.2207 11.1504 3.2207 10.7402 3.24023C10.3496 3.25977 9.80273 3.2793 9.09961 3.29883C8.41602 3.31836 7.83008 3.36719 7.3418 3.44531C6.87305 3.52344 6.47266 3.64062 6.14062 3.79688C4.96875 4.26562 4.13867 5.08594 3.65039 6.25781C3.51367 6.60938 3.40625 7.01953 3.32812 7.48828C3.25 7.95703 3.19141 8.54297 3.15234 9.24609C3.13281 9.94922 3.11328 10.4961 3.09375 10.8867C3.09375 11.2773 3.09375 11.8828 3.09375 12.7031C3.11328 13.5234 3.12305 13.9629 3.12305 14.0215C3.12305 14.0801 3.11328 14.5098 3.09375 15.3105C3.09375 16.1113 3.09375 16.7168 3.09375 17.127C3.11328 17.5371 3.13281 18.084 3.15234 18.7676C3.19141 19.4512 3.25 20.0371 3.32812 20.5254C3.40625 21.0137 3.51367 21.4336 3.65039 21.7852C4.13867 22.957 4.96875 23.7773 6.14062 24.2461C6.47266 24.4023 6.87305 24.5195 7.3418 24.5977C7.83008 24.6758 8.41602 24.7246 9.09961 24.7441C9.80273 24.7637 10.3496 24.7832 10.7402 24.8027C11.1504 24.8223 11.7559 24.8223 12.5566 24.8027C13.377 24.7832 13.8164 24.7734 13.875 24.7734C13.9336 24.7734 14.3633 24.7832 15.1641 24.8027C15.9844 24.8223 16.5898 24.8223 16.9805 24.8027C17.3906 24.7832 17.9375 24.7637 18.6211 24.7441C19.3242 24.7246 19.9102 24.6758 20.3789 24.5977C20.8672 24.5195 21.2773 24.4023 21.6094 24.2461C22.8008 23.7773 23.6406 22.957 24.1289 21.7852Z" fill="#9ECE6A"/>
</svg>
