<svg width="30" height="30" viewBox="0 0 30 30" fill="none" xmlns="http://www.w3.org/2000/svg">
<path d="M15 0C17.7344 0 20.2441 0.673828 22.5293 2.02148C24.834 3.36914 26.6504 5.18555 27.9785 7.4707C29.3262 9.75586 30 12.2656 30 15C30 17.7344 29.3262 20.2539 27.9785 22.5586C26.6504 24.8633 24.834 26.6797 22.5293 28.0078C20.2441 29.3359 17.7344 30 15 30C12.2656 30 9.74609 29.3359 7.44141 28.0078C5.15625 26.6797 3.33984 24.8633 1.99219 22.5586C0.664062 20.2539 0 17.7344 0 15C0 12.2656 0.664062 9.75586 1.99219 7.4707C3.33984 5.18555 5.15625 3.36914 7.44141 2.02148C9.74609 0.673828 12.2656 0 15 0ZM19.0137 27.1875C20.9473 26.6016 22.6465 25.5762 24.1113 24.1113C25.5762 22.6465 26.6211 20.9473 27.2461 19.0137C27.8906 17.0801 28.0371 15.0781 27.6855 13.0078C27.3535 10.9375 26.5918 9.07227 25.4004 7.41211C24.209 5.75195 22.6953 4.45312 20.8594 3.51562C19.0234 2.57812 17.0703 2.10938 15 2.10938C12.9297 2.10938 10.9766 2.57812 9.14062 3.51562C7.30469 4.45312 5.79102 5.75195 4.59961 7.41211C3.4082 9.07227 2.63672 10.9375 2.28516 13.0078C1.95312 15.0781 2.09961 17.0801 2.72461 19.0137C3.36914 20.9473 4.42383 22.6465 5.88867 24.1113C7.35352 25.5762 9.05273 26.6016 10.9863 27.1875H11.1035C11.2988 27.1875 11.4648 27.1387 11.6016 27.041C11.7383 26.9434 11.8066 26.7969 11.8066 26.6016V24.4336L11.1035 24.4922H10.4883C9.82422 24.5703 9.20898 24.4434 8.64258 24.1113C8.07617 23.7793 7.69531 23.3203 7.5 22.7344L6.91406 21.6211C6.77734 21.5039 6.64062 21.3672 6.50391 21.2109L5.71289 20.625C5.57617 20.4688 5.50781 20.3613 5.50781 20.3027C5.50781 20.2441 5.53711 20.1758 5.5957 20.0977L6.09375 20.0391C6.28906 20.0391 6.48438 20.0879 6.67969 20.1855C6.89453 20.2832 7.09961 20.3516 7.29492 20.3906L7.70508 20.918L8.08594 21.3281C8.35938 21.7969 8.68164 22.1582 9.05273 22.4121C9.42383 22.666 9.85352 22.7832 10.3418 22.7637C10.8496 22.7441 11.3379 22.6367 11.8066 22.4414C11.8652 22.0898 11.9629 21.7676 12.0996 21.4746C12.2363 21.1816 12.4023 20.9375 12.5977 20.7422C11.7383 20.6641 10.9375 20.4688 10.1953 20.1562C9.47266 19.8438 8.83789 19.4238 8.29102 18.8965C7.76367 18.3691 7.40234 17.7344 7.20703 16.9922C6.93359 16.1328 6.79688 15.2344 6.79688 14.2969C6.79688 13.7109 6.91406 13.1152 7.14844 12.5098C7.38281 11.9043 7.69531 11.3672 8.08594 10.8984C8.02734 10.625 7.97852 10.3809 7.93945 10.166C7.91992 9.95117 7.91016 9.6875 7.91016 9.375C7.91016 9.0625 7.93945 8.75977 7.99805 8.4668C8.07617 8.17383 8.14453 7.85156 8.20312 7.5H8.49609C8.76953 7.5 9.05273 7.53906 9.3457 7.61719C9.63867 7.69531 9.92188 7.79297 10.1953 7.91016L11.1035 8.4375L11.8066 8.78906C13.9355 8.20312 16.0645 8.20312 18.1934 8.78906L18.8965 8.4375L19.8047 7.91016C20.0586 7.79297 20.3223 7.69531 20.5957 7.61719C20.8691 7.53906 21.1719 7.5 21.5039 7.5H21.709C21.8457 7.85156 21.9434 8.17383 22.002 8.4668C22.0605 8.75977 22.0898 9.0625 22.0898 9.375C22.0898 9.6875 22.0703 9.95117 22.0312 10.166C22.0117 10.3809 21.9727 10.625 21.9141 10.8984C22.3047 11.3672 22.6172 11.9043 22.8516 12.5098C23.0859 13.1152 23.2031 13.7109 23.2031 14.2969C23.2031 15.2344 23.0664 16.1328 22.793 16.9922C22.5977 17.7344 22.2266 18.3691 21.6797 18.8965C21.1523 19.4238 20.5078 19.8438 19.7461 20.1562C18.9844 20.4688 18.1738 20.6641 17.3145 20.7422C17.6465 20.9766 17.8711 21.3086 17.9883 21.7383C18.125 22.168 18.1934 22.6172 18.1934 23.0859V26.6016C18.1934 26.7969 18.2617 26.9434 18.3984 27.041C18.5352 27.1387 18.6719 27.1875 18.8086 27.1875H19.0137Z" fill="#9ECE6A"/>
</svg>
