<svg width="37" height="37" viewBox="0 0 37 37" fill="none" xmlns="http://www.w3.org/2000/svg">
<path d="M18.5222 0C21.8683 0 24.948 0.833132 27.7611 2.4994C30.6038 4.16566 32.8543 6.42702 34.5126 9.28347C36.1709 12.1399 37 15.2493 37 18.6116C37 21.9441 36.1709 25.0386 34.5126 27.8951C32.8543 30.7218 30.6038 32.9534 27.7611 34.5899C24.9184 36.1966 21.8239 37 18.4778 37C15.1613 37 12.0816 36.1966 9.2389 34.5899C6.42577 32.9534 4.17527 30.7218 2.48739 27.8951C0.829132 25.0386 0 21.9441 0 18.6116C0 15.2493 0.829132 12.1399 2.48739 9.28347C4.17527 6.42702 6.42577 4.16566 9.2389 2.4994C12.0816 0.833132 15.1761 0 18.5222 0ZM32.4694 11.4258C31.5514 9.61078 30.3373 8.04865 28.8271 6.73945C27.3169 5.40048 25.6439 4.41858 23.8079 3.79373C25.022 6.14435 25.94 8.68838 26.5618 11.4258H32.4694ZM34.1128 19.9505C34.2017 19.4447 34.2609 18.9835 34.2905 18.5669C34.2017 17.0495 33.9944 15.6361 33.6687 14.3269H27.006C27.0948 15.3386 27.1393 16.2461 27.1393 17.0495C27.1393 18.9835 26.9468 20.9176 26.5618 22.8516H33.6687C33.876 21.9292 34.024 20.9622 34.1128 19.9505ZM24.1188 19.9505V19.8166C24.2077 18.8942 24.2521 17.9719 24.2521 17.0495C24.2521 16.1271 24.1633 15.2195 23.9856 14.3269H13.0588C12.97 15.2493 12.9108 16.1568 12.8812 17.0495C12.8812 18.9835 13.0884 20.9176 13.503 22.8516H23.6747C23.882 21.84 24.03 20.8729 24.1188 19.9505ZM23.497 11.4258C22.7863 8.39083 21.6315 5.54926 20.0324 2.90109H18.5222H17.1453C15.4278 5.54926 14.2581 8.39083 13.6363 11.4258H23.497ZM10.6158 11.4258C11.1192 8.68838 12.0372 6.09972 13.3697 3.65983C11.445 4.37394 9.7423 5.38561 8.2617 6.69481C6.81072 8.00402 5.62625 9.58102 4.70828 11.4258H10.6158ZM3.509 14.1484C3.09444 15.5766 2.88715 17.0346 2.88715 18.5223C2.88715 19.9803 3.09444 21.4234 3.509 22.8516H10.6158C10.2013 20.9176 10.0088 18.9835 10.0384 17.0495C10.0384 16.2461 10.0828 15.3386 10.1717 14.3269H3.509V14.1484ZM11.3709 25.5742H4.70828C5.71509 27.8058 7.18087 29.6357 9.10564 31.0639C11.0304 32.4922 13.1477 33.4592 15.4574 33.965C13.6511 31.4359 12.2889 28.6984 11.3709 25.7527V25.5742ZM18.5222 33.2063C20.3285 30.9747 21.7351 28.4901 22.7419 25.7527H14.4358C15.3537 28.4901 16.7159 30.9747 18.5222 33.2063ZM25.8067 25.5742C24.8888 28.6092 23.5118 31.4061 21.6759 33.965C24.0152 33.4592 26.1176 32.4922 27.9832 31.0639C29.8487 29.6357 31.3441 27.8058 32.4694 25.5742H25.8067Z" fill="#24283B"/>
</svg>
