<svg width="27" height="27" viewBox="0 0 27 27" fill="none" xmlns="http://www.w3.org/2000/svg">
<path d="M24.375 0C24.8828 0 25.3223 0.185547 25.6934 0.556641C26.0645 0.927734 26.25 1.36719 26.25 1.875V24.375C26.25 24.8828 26.0645 25.3223 25.6934 25.6934C25.3223 26.0645 24.8828 26.25 24.375 26.25H1.875C1.36719 26.25 0.927734 26.0645 0.556641 25.6934C0.185547 25.3223 0 24.8828 0 24.375V1.875C0 1.36719 0.185547 0.927734 0.556641 0.556641C0.927734 0.185547 1.36719 0 1.875 0H24.375ZM7.93945 22.5V9.96094H4.04297V22.5H7.93945ZM4.36523 7.61719C4.81445 8.04688 5.35156 8.26172 5.97656 8.26172C6.60156 8.26172 7.12891 8.04688 7.55859 7.61719C8.00781 7.1875 8.23242 6.66016 8.23242 6.03516C8.23242 5.41016 8.00781 4.87305 7.55859 4.42383C7.12891 3.97461 6.60156 3.75 5.97656 3.75C5.35156 3.75 4.81445 3.97461 4.36523 4.42383C3.93555 4.87305 3.7207 5.41016 3.7207 6.03516C3.7207 6.66016 3.93555 7.1875 4.36523 7.61719ZM22.5293 22.5V15.6445C22.5293 13.7305 22.1973 12.2559 21.5332 11.2207C20.8887 10.1855 19.6582 9.66797 17.8418 9.66797C16.9629 9.66797 16.2012 9.86328 15.5566 10.2539C14.9121 10.6445 14.4434 11.1133 14.1504 11.6602H14.1211V9.96094H10.3711V22.5H14.2676V16.2891C14.2676 15.3125 14.4238 14.5312 14.7363 13.9453C15.0684 13.3594 15.6934 13.0664 16.6113 13.0664C17.0801 13.0664 17.4609 13.1641 17.7539 13.3594C18.0469 13.5547 18.252 13.8477 18.3691 14.2383C18.4863 14.6289 18.5547 14.9707 18.5742 15.2637C18.6133 15.5566 18.6328 15.9375 18.6328 16.4062V22.5H22.5293Z" fill="#9ECE6A"/>
</svg>
